<svg width="42" height="42" viewBox="0 0 42 42" fill="none" xmlns="http://www.w3.org/2000/svg">
<path fill-rule="evenodd" clip-rule="evenodd" d="M8.225 10.864C6.52337 10.864 5.25 12.2231 5.25 13.664V29.064C5.25 30.5049 6.52337 31.864 8.225 31.864H21C21.9665 31.864 22.75 32.6475 22.75 33.614C22.75 34.5805 21.9665 35.364 21 35.364H8.225C4.67663 35.364 1.75 32.523 1.75 29.064V13.664C1.75 10.2049 4.67663 7.36401 8.225 7.36401H12.95C18.4154 7.36401 22.75 11.5971 22.75 16.814C22.75 17.7805 21.9665 18.564 21 18.564C20.0335 18.564 19.25 17.7805 19.25 16.814C19.25 13.6309 16.5846 10.864 12.95 10.864H8.225Z" fill="black"/>
<path fill-rule="evenodd" clip-rule="evenodd" d="M28.875 10.864C25.4408 10.864 22.75 13.606 22.75 16.814V29.064C22.75 30.0305 21.9665 30.814 21 30.814C20.0335 30.814 19.25 30.0305 19.25 29.064V16.814C19.25 11.622 23.5592 7.36401 28.875 7.36401H33.6C37.2808 7.36401 40.25 10.164 40.25 13.664V29.064C40.25 32.523 37.3233 35.364 33.775 35.364H21C20.0335 35.364 19.25 34.5805 19.25 33.614C19.25 32.6475 20.0335 31.864 21 31.864H33.775C35.4767 31.864 36.75 30.5049 36.75 29.064V13.664C36.75 12.264 35.5192 10.864 33.6 10.864H28.875Z" fill="black"/>
</svg>
