<svg width="39" height="39" viewBox="0 0 39 39" fill="none" xmlns="http://www.w3.org/2000/svg">
<path fill-rule="evenodd" clip-rule="evenodd" d="M4.875 10.6272C4.875 9.71642 5.861 8.59314 7.2161 8.59314H13C13.9915 8.59314 15.0441 8.96437 15.6738 9.57063C15.6873 9.58354 15.7009 9.59624 15.7148 9.60868L18.1935 11.836C18.4918 12.104 18.8786 12.2522 19.2796 12.2522H28.5339C29.6288 12.2522 30.7253 13.002 30.8953 14.0655C31.037 14.9517 31.8702 15.5553 32.7564 15.4137C33.6427 15.2721 34.2462 14.4388 34.1047 13.5526C33.6136 10.4797 30.7442 9.00222 28.5339 9.00222H19.9025L17.906 7.20838C16.5539 5.92019 14.6437 5.34314 13 5.34314H7.2161C4.2746 5.34314 1.625 7.71983 1.625 10.6272V29.7182C1.625 29.7877 1.62939 29.8564 1.63789 29.9237C1.45435 32.2738 3.31542 34.5932 5.85635 34.5932H28.2709C31.051 34.5932 33.5878 32.87 34.6466 30.295L37.0888 24.192L37.0916 24.1852C38.1501 21.5043 36.1103 18.3432 33.1438 18.3432H10.7291C8.99829 18.3432 7.51155 19.0049 6.30105 20.0167C5.72619 20.46 5.25181 20.9929 4.875 21.6013V10.6272ZM8.36648 22.5262C9.09946 21.9074 9.87602 21.5932 10.7291 21.5932H33.1438C33.4105 21.5932 33.709 21.7412 33.9241 22.0636C34.1406 22.3876 34.169 22.7349 34.0696 22.9894L34.0686 22.9916L31.6381 29.0656C31.0711 30.4364 29.7118 31.3432 28.2709 31.3432H5.85635C5.58969 31.3432 5.29115 31.195 5.07596 30.8727C4.8596 30.5487 4.83109 30.2016 4.93046 29.9471L7.36507 23.863L7.36782 23.856C7.59309 23.2854 7.90792 22.8774 8.30131 22.5784C8.32348 22.5617 8.3452 22.5443 8.36648 22.5262Z" fill="black"/>
</svg>
