<svg width="19" height="18" viewBox="0 0 19 18" fill="none" xmlns="http://www.w3.org/2000/svg">
<path fill-rule="evenodd" clip-rule="evenodd" d="M8.51113 2.58737C9.89892 1.48271 12.1125 2.38606 12.1125 4.04735V14.2473C12.1125 15.8186 10.0072 16.8129 8.52656 15.7185C6.65537 14.3935 4.8789 13.2895 3.0378 12.3962C1.66622 11.7772 0.791664 10.4721 0.791664 9.14734C0.791664 7.75922 1.65985 6.44656 3.0446 5.82461C5.1161 4.86313 6.88614 3.7632 8.51113 2.58737ZM10.5292 4.04735C10.5292 3.59113 9.91269 3.36178 9.55755 3.65064C9.54631 3.65975 9.53483 3.66856 9.52311 3.67707C7.82869 4.90436 5.9633 6.0663 3.76858 7.08452L3.75821 7.08924C2.9295 7.45997 2.375 8.27071 2.375 9.14734C2.375 9.94372 2.9202 10.7597 3.75821 11.1346C3.76595 11.1381 3.77362 11.1417 3.78122 11.1453C5.734 12.0917 7.5938 13.251 9.51639 14.6128C9.51947 14.615 9.52248 14.6172 9.52557 14.6194C9.52763 14.6209 9.52976 14.6225 9.53182 14.624C9.95077 14.9364 10.5292 14.6565 10.5292 14.2473V4.04735Z" fill="black"/>
<path fill-rule="evenodd" clip-rule="evenodd" d="M13.6418 7.13554C13.9217 6.83501 14.4209 6.7944 14.7568 7.04484C15.4512 7.56259 15.7542 8.34954 15.7542 9.0765C15.7542 9.85935 15.3301 10.5993 14.8098 11.0649C14.5006 11.3415 13.9994 11.3415 13.6902 11.0649C13.3811 10.7883 13.3811 10.3397 13.6902 10.0631C13.9616 9.82032 14.1708 9.42699 14.1708 9.0765C14.1708 8.67006 13.9988 8.32376 13.7432 8.13315C13.4073 7.88268 13.3619 7.43606 13.6418 7.13554Z" fill="black"/>
<path fill-rule="evenodd" clip-rule="evenodd" d="M13.6031 4.61491C13.7775 4.25615 14.2438 4.09177 14.6448 4.24775C16.7491 5.06632 18.2083 6.94734 18.2083 9.14733C18.2083 11.3521 16.743 13.2353 14.5545 14.0512C14.1509 14.2016 13.6874 14.0309 13.5192 13.6698C13.3511 13.3086 13.5419 12.894 13.9455 12.7435C15.557 12.1427 16.625 10.7676 16.625 9.14733C16.625 7.52234 15.5509 6.14503 14.0135 5.54693C13.6126 5.39095 13.4288 4.97367 13.6031 4.61491Z" fill="black"/>
</svg>
