<svg width="27" height="27" viewBox="0 0 27 27" fill="none" xmlns="http://www.w3.org/2000/svg">
<path d="M13.5 21.375C12.5965 21.375 11.8059 21.0314 11.2412 20.3443L5.02941 12.786C4.46471 12.0988 4.35177 11.0681 4.69058 10.2665C5.02941 9.46482 5.81999 8.89221 6.72353 8.89221H9.32117V4.88399C9.32117 3.39521 10.5635 2.25 12.0318 2.25H15.0812C16.5494 2.25 17.6788 3.39521 17.6788 4.88399V8.89221H20.2764C21.18 8.89221 21.9706 9.3503 22.3094 10.2665C22.6483 11.0681 22.5353 11.9843 21.9706 12.6714L15.7588 20.3443C15.1941 21.0314 14.4035 21.375 13.5 21.375ZM6.72353 11.2971L12.9352 18.8556C13.1611 19.0846 13.387 19.0846 13.5 19.0846C13.6129 19.0846 13.8388 19.0846 14.0647 18.8556L20.2764 11.2971H16.5494C15.8717 11.2971 15.42 10.8391 15.42 10.1519V4.88399C15.42 4.65494 15.1941 4.54042 15.0812 4.54042H12.0318C11.8059 4.54042 11.58 4.76946 11.58 4.88399V10.0374C11.58 10.7245 11.1282 11.1826 10.4506 11.1826H6.72353V11.2971Z" fill="black"/>
<path d="M20.7201 24.75H6.16791C3.92911 24.75 2.25 23.0625 2.25 20.8125V18C2.25 17.325 2.69776 16.875 3.3694 16.875C4.04104 16.875 4.48881 17.325 4.48881 18V20.8125C4.48881 21.7125 5.27239 22.5 6.16791 22.5H20.8321C21.7276 22.5 22.5112 21.7125 22.5112 20.8125V18C22.5112 17.325 22.959 16.875 23.6306 16.875C24.3022 16.875 24.75 17.325 24.75 18V20.8125C24.6381 23.0625 22.959 24.75 20.7201 24.75Z" fill="black"/>
</svg>
