<svg width="15" height="15" viewBox="0 0 15 15" fill="none" xmlns="http://www.w3.org/2000/svg">
<path d="M13.6251 6.125C12.3751 5.0625 10.3126 3.75 7.50006 3.75C7.18756 3.75 6.87506 3.75 6.68756 3.8125C6.31256 3.875 6.06255 4.1875 6.12505 4.5625C6.18755 4.875 6.50006 5.125 6.81256 5.125C7.00006 5.125 7.25006 5.0625 7.50006 5.0625C9.93756 5.0625 11.7501 6.1875 12.8126 7.125C13.0001 7.25 13.1251 7.5 13.1251 7.8125C13.1251 8.125 13.0001 8.3125 12.8126 8.5C12.4376 8.8125 12.0001 9.125 11.5626 9.375C11.2501 9.5625 11.1876 9.9375 11.3126 10.25C11.4376 10.4375 11.6251 10.5625 11.8751 10.5625C12.0001 10.5625 12.0626 10.5625 12.1876 10.5C12.6876 10.1875 13.1876 9.875 13.6251 9.5C14.1251 9.0625 14.3751 8.5 14.3751 7.875C14.3751 7.125 14.1251 6.5625 13.6251 6.125Z" fill="#818181" fill-opacity="0.69"/>
<path d="M2.625 2.0625C2.375 1.8125 2 1.8125 1.75 2.0625C1.5 2.3125 1.5 2.6875 1.75 2.9375L3.5 4.6875C2.625 5.1875 1.875 5.75 1.375 6.125C0.875 6.5625 0.625 7.125 0.625 7.8125C0.625 8.5 0.875 9.0625 1.375 9.4375C2.625 10.5 4.6875 11.8125 7.5 11.8125C8.4375 11.8125 9.3125 11.6875 10.1875 11.375L12.375 13.5625C12.5 13.6875 12.6875 13.75 12.8125 13.75C12.9375 13.75 13.125 13.6875 13.25 13.5625C13.5 13.3125 13.5 12.9375 13.25 12.6875L2.625 2.0625ZM7.5 10.5C5.0625 10.5 3.25 9.375 2.1875 8.4375C2 8.3125 1.875 8.0625 1.875 7.8125C1.875 7.5625 2 7.3125 2.1875 7.125C2.6875 6.6875 3.5 6.125 4.5 5.6875L6.125 7.3125C6.0625 7.4375 6.0625 7.625 6.0625 7.8125C6.0625 8.625 6.6875 9.25 7.5 9.25C7.6875 9.25 7.8125 9.1875 8 9.1875L9.1875 10.375C8.625 10.4375 8.0625 10.5 7.5 10.5Z" fill="#818181" fill-opacity="0.69"/>
</svg>
