<svg width="15" height="15" viewBox="0 0 15 15" fill="none" xmlns="http://www.w3.org/2000/svg">
<path d="M13.625 6.125C12.375 5 10.3125 3.75 7.5 3.75C4.6875 3.75 2.625 5 1.375 6.125C0.875 6.5 0.625 7.125 0.625 7.75C0.625 8.375 0.875 9 1.375 9.375C2.625 10.4375 4.6875 11.75 7.5 11.75C10.3125 11.75 12.375 10.5 13.625 9.375C14.125 9 14.375 8.375 14.375 7.75C14.375 7.125 14.125 6.5 13.625 6.125ZM12.8125 8.4375C11.75 9.375 9.9375 10.5 7.5 10.5C5.0625 10.5 3.25 9.375 2.1875 8.4375C2 8.25 1.875 8 1.875 7.75C1.875 7.5 2 7.25 2.1875 7.0625C3.25 6.125 5.0625 5 7.5 5C9.9375 5 11.75 6.125 12.8125 7.0625C13 7.1875 13.125 7.4375 13.125 7.75C13.125 8 13 8.25 12.8125 8.4375Z" fill="black"/>
<path d="M7.49999 9.1875C8.29393 9.1875 8.93749 8.54394 8.93749 7.75C8.93749 6.95612 8.29393 6.3125 7.49999 6.3125C6.70612 6.3125 6.0625 6.95612 6.0625 7.75C6.0625 8.54394 6.70612 9.1875 7.49999 9.1875Z" fill="black"/>
</svg>
