<svg width="373" height="346" viewBox="0 0 373 346" fill="none" xmlns="http://www.w3.org/2000/svg">
<path d="M55 7.99999C55 4.134 58.134 1 62 1H175V265H60C57.2386 265 55 262.761 55 260V7.99999Z" fill="black" fill-opacity="0.82"/>
<path d="M55 7.99999C55 4.134 58.134 1 62 1H175V265H60C57.2386 265 55 262.761 55 260V7.99999Z" fill="url(#paint0_radial_9_25)" fill-opacity="0.2"/>
<path d="M55 7.99999C55 4.134 58.134 1 62 1H175V265H60C57.2386 265 55 262.761 55 260V7.99999Z" stroke="black" stroke-opacity="0.77"/>
<path d="M173 1H279C286.732 1 293 7.26801 293 15V265H173V1Z" fill="#D4712D"/>
<path d="M173 1H279C286.732 1 293 7.26801 293 15V265H173V1Z" fill="url(#paint1_linear_9_25)" fill-opacity="0.29" style="mix-blend-mode:hard-light"/>
<path d="M173 0.5H279C287.008 0.5 293.5 6.99187 293.5 15H292.5C292.5 7.54416 286.456 1.5 279 1.5H173V0.5ZM293.5 265.5H173V264.5H292.5L293.5 265.5ZM173 265V1V265ZM279 0.5C287.008 0.5 293.5 6.99187 293.5 15V265.5L292.5 264.5V15C292.5 7.54416 286.456 1.5 279 1.5V0.5Z" fill="#D4712D"/>
<path d="M173 0.5H279C287.008 0.5 293.5 6.99187 293.5 15H292.5C292.5 7.54416 286.456 1.5 279 1.5H173V0.5ZM293.5 265.5H173V264.5H292.5L293.5 265.5ZM173 265V1V265ZM279 0.5C287.008 0.5 293.5 6.99187 293.5 15V265.5L292.5 264.5V15C292.5 7.54416 286.456 1.5 279 1.5V0.5Z" fill="url(#paint2_linear_9_25)" fill-opacity="0.2" style="mix-blend-mode:lighten"/>
<g filter="url(#filter0_d_9_25)">
<path d="M173 27.6099C173 27.5635 173.032 27.5232 173.077 27.5126L204.877 20.0289C204.94 20.0142 205 20.0618 205 20.1263V264.9C205 264.955 204.955 265 204.9 265H173.1C173.045 265 173 264.955 173 264.9L173 27.6099Z" fill="#934C1B"/>
<path d="M173 27.6099C173 27.5635 173.032 27.5232 173.077 27.5126L204.877 20.0289C204.94 20.0142 205 20.0618 205 20.1263V264.9C205 264.955 204.955 265 204.9 265H173.1C173.045 265 173 264.955 173 264.9L173 27.6099Z" fill="url(#paint3_linear_9_25)" fill-opacity="0.2" style="mix-blend-mode:multiply"/>
<path d="M173 27.6099C173 27.5635 173.032 27.5232 173.077 27.5126L204.877 20.0289C204.94 20.0142 205 20.0618 205 20.1263V264.9C205 264.955 204.955 265 204.9 265H173.1C173.045 265 173 264.955 173 264.9L173 27.6099Z" stroke="#71401F"/>
</g>
<path d="M207 251.5C207 251.224 207.224 251 207.5 251H317.5L306 265H207V251.5Z" fill="#5F350F" stroke="#5F350F"/>
<path d="M234 253C234 251.895 234.895 251 236 251H319L318.581 254.447C317.85 260.47 312.737 265 306.669 265H235C234.448 265 234 264.552 234 264V253Z" fill="#C56D30"/>
<g filter="url(#filter1_d_9_25)">
<rect x="4" y="284" width="365" height="4" rx="2" fill="#C56D30" fill-opacity="0.81" shape-rendering="crispEdges"/>
</g>
<g filter="url(#filter2_d_9_25)">
<path d="M71.3224 337H63.5824L55.4374 306.67H62.7274L65.5174 317.83C66.1174 320.23 66.6124 322.405 67.0024 324.355C67.3924 326.275 67.6324 327.61 67.7224 328.36L67.9024 329.44C68.4124 327.1 69.4324 323.23 70.9624 317.83L73.9774 307.12H79.1074L82.0774 317.83C82.7074 320.08 83.2624 322.18 83.7424 324.13C84.2524 326.05 84.5974 327.415 84.7774 328.225L85.0474 329.44C85.4374 326.77 86.2774 322.885 87.5674 317.785L90.3574 306.67H97.4224L89.3224 337H81.5824L78.9274 327.415C78.2974 325.105 77.7724 323.155 77.3524 321.565C76.9624 319.975 76.7224 318.955 76.6324 318.505L76.5424 317.83C76.4524 319.06 75.6424 322.255 74.1124 327.415L71.3224 337ZM124.679 325.48C124.679 328.93 123.689 331.78 121.709 334.03C119.759 336.25 117.029 337.36 113.519 337.36C109.949 337.36 107.189 336.295 105.239 334.165C103.289 332.005 102.314 329.245 102.314 325.885C102.314 322.375 103.334 319.495 105.374 317.245C107.414 314.965 110.129 313.825 113.519 313.825C117.059 313.825 119.804 314.92 121.754 317.11C123.704 319.3 124.679 322.09 124.679 325.48ZM110.234 320.845C109.514 322.075 109.154 323.665 109.154 325.615C109.154 327.565 109.514 329.17 110.234 330.43C110.984 331.66 112.094 332.275 113.564 332.275C115.004 332.275 116.069 331.675 116.759 330.475C117.479 329.245 117.839 327.655 117.839 325.705C117.839 321.235 116.384 319 113.474 319C112.034 319 110.954 319.615 110.234 320.845ZM137.971 337H131.401L131.446 314.185H137.971V318.415C138.391 317.095 139.081 316.045 140.041 315.265C141.031 314.455 142.171 314.05 143.461 314.05C144.181 314.05 144.751 314.11 145.171 314.23V320.44C144.451 320.11 143.626 319.945 142.696 319.945C141.286 319.945 140.146 320.47 139.276 321.52C138.406 322.54 137.971 323.905 137.971 325.615V337ZM156.112 325.66C156.112 327.49 156.592 328.975 157.552 330.115C158.512 331.225 159.682 331.78 161.062 331.78C162.562 331.78 163.777 331.195 164.707 330.025C165.637 328.855 166.102 327.295 166.102 325.345C166.102 323.455 165.592 321.985 164.572 320.935C163.582 319.885 162.397 319.36 161.017 319.36C159.637 319.36 158.467 319.915 157.507 321.025C156.577 322.135 156.112 323.68 156.112 325.66ZM172.672 337H166.102V333.445C164.572 335.995 162.292 337.27 159.262 337.27C156.292 337.27 153.907 336.115 152.107 333.805C150.337 331.495 149.452 328.735 149.452 325.525C149.452 321.925 150.382 319.09 152.242 317.02C154.102 314.95 156.457 313.915 159.307 313.915C162.277 313.915 164.542 315.175 166.102 317.695V305.185H172.672V337ZM219.531 337H212.556V324.895H201.441V337H194.511V306.67H201.441V319H212.556V306.67H219.531V337ZM234.406 337H227.836V314.185H234.406V337ZM233.821 304.87C234.571 305.62 234.946 306.52 234.946 307.57C234.946 308.62 234.571 309.52 233.821 310.27C233.071 311.02 232.171 311.395 231.121 311.395C230.071 311.395 229.171 311.02 228.421 310.27C227.671 309.52 227.296 308.62 227.296 307.57C227.296 306.52 227.671 305.62 228.421 304.87C229.171 304.12 230.071 303.745 231.121 303.745C232.171 303.745 233.071 304.12 233.821 304.87ZM255.212 337H248.462L240.047 314.185H246.932L249.902 323.905C250.352 325.405 250.742 326.83 251.072 328.18C251.402 329.5 251.612 330.46 251.702 331.06L251.882 331.915C252.152 329.965 252.827 327.295 253.907 323.905L256.967 314.185H263.717L255.212 337ZM287.033 335.695C285.473 336.715 283.088 337.225 279.878 337.225C276.128 337.225 273.203 336.145 271.103 333.985C269.033 331.795 267.998 328.99 267.998 325.57C267.998 321.94 269.003 319.105 271.013 317.065C273.053 314.995 275.558 313.96 278.528 313.96C281.588 313.96 284.003 314.86 285.773 316.66C287.543 318.43 288.428 321.085 288.428 324.625C288.428 325.315 288.308 326.5 288.068 328.18H274.658C275.108 329.44 275.888 330.415 276.998 331.105C278.108 331.795 279.443 332.14 281.003 332.14C283.313 332.14 285.323 331.495 287.033 330.205V335.695ZM278.798 318.955C277.748 318.955 276.818 319.345 276.008 320.125C275.198 320.875 274.658 322 274.388 323.5H282.308V322.96C282.098 320.29 280.928 318.955 278.798 318.955Z" fill="black"/>
<path d="M71.3224 337H63.5824L55.4374 306.67H62.7274L65.5174 317.83C66.1174 320.23 66.6124 322.405 67.0024 324.355C67.3924 326.275 67.6324 327.61 67.7224 328.36L67.9024 329.44C68.4124 327.1 69.4324 323.23 70.9624 317.83L73.9774 307.12H79.1074L82.0774 317.83C82.7074 320.08 83.2624 322.18 83.7424 324.13C84.2524 326.05 84.5974 327.415 84.7774 328.225L85.0474 329.44C85.4374 326.77 86.2774 322.885 87.5674 317.785L90.3574 306.67H97.4224L89.3224 337H81.5824L78.9274 327.415C78.2974 325.105 77.7724 323.155 77.3524 321.565C76.9624 319.975 76.7224 318.955 76.6324 318.505L76.5424 317.83C76.4524 319.06 75.6424 322.255 74.1124 327.415L71.3224 337ZM124.679 325.48C124.679 328.93 123.689 331.78 121.709 334.03C119.759 336.25 117.029 337.36 113.519 337.36C109.949 337.36 107.189 336.295 105.239 334.165C103.289 332.005 102.314 329.245 102.314 325.885C102.314 322.375 103.334 319.495 105.374 317.245C107.414 314.965 110.129 313.825 113.519 313.825C117.059 313.825 119.804 314.92 121.754 317.11C123.704 319.3 124.679 322.09 124.679 325.48ZM110.234 320.845C109.514 322.075 109.154 323.665 109.154 325.615C109.154 327.565 109.514 329.17 110.234 330.43C110.984 331.66 112.094 332.275 113.564 332.275C115.004 332.275 116.069 331.675 116.759 330.475C117.479 329.245 117.839 327.655 117.839 325.705C117.839 321.235 116.384 319 113.474 319C112.034 319 110.954 319.615 110.234 320.845ZM137.971 337H131.401L131.446 314.185H137.971V318.415C138.391 317.095 139.081 316.045 140.041 315.265C141.031 314.455 142.171 314.05 143.461 314.05C144.181 314.05 144.751 314.11 145.171 314.23V320.44C144.451 320.11 143.626 319.945 142.696 319.945C141.286 319.945 140.146 320.47 139.276 321.52C138.406 322.54 137.971 323.905 137.971 325.615V337ZM156.112 325.66C156.112 327.49 156.592 328.975 157.552 330.115C158.512 331.225 159.682 331.78 161.062 331.78C162.562 331.78 163.777 331.195 164.707 330.025C165.637 328.855 166.102 327.295 166.102 325.345C166.102 323.455 165.592 321.985 164.572 320.935C163.582 319.885 162.397 319.36 161.017 319.36C159.637 319.36 158.467 319.915 157.507 321.025C156.577 322.135 156.112 323.68 156.112 325.66ZM172.672 337H166.102V333.445C164.572 335.995 162.292 337.27 159.262 337.27C156.292 337.27 153.907 336.115 152.107 333.805C150.337 331.495 149.452 328.735 149.452 325.525C149.452 321.925 150.382 319.09 152.242 317.02C154.102 314.95 156.457 313.915 159.307 313.915C162.277 313.915 164.542 315.175 166.102 317.695V305.185H172.672V337ZM219.531 337H212.556V324.895H201.441V337H194.511V306.67H201.441V319H212.556V306.67H219.531V337ZM234.406 337H227.836V314.185H234.406V337ZM233.821 304.87C234.571 305.62 234.946 306.52 234.946 307.57C234.946 308.62 234.571 309.52 233.821 310.27C233.071 311.02 232.171 311.395 231.121 311.395C230.071 311.395 229.171 311.02 228.421 310.27C227.671 309.52 227.296 308.62 227.296 307.57C227.296 306.52 227.671 305.62 228.421 304.87C229.171 304.12 230.071 303.745 231.121 303.745C232.171 303.745 233.071 304.12 233.821 304.87ZM255.212 337H248.462L240.047 314.185H246.932L249.902 323.905C250.352 325.405 250.742 326.83 251.072 328.18C251.402 329.5 251.612 330.46 251.702 331.06L251.882 331.915C252.152 329.965 252.827 327.295 253.907 323.905L256.967 314.185H263.717L255.212 337ZM287.033 335.695C285.473 336.715 283.088 337.225 279.878 337.225C276.128 337.225 273.203 336.145 271.103 333.985C269.033 331.795 267.998 328.99 267.998 325.57C267.998 321.94 269.003 319.105 271.013 317.065C273.053 314.995 275.558 313.96 278.528 313.96C281.588 313.96 284.003 314.86 285.773 316.66C287.543 318.43 288.428 321.085 288.428 324.625C288.428 325.315 288.308 326.5 288.068 328.18H274.658C275.108 329.44 275.888 330.415 276.998 331.105C278.108 331.795 279.443 332.14 281.003 332.14C283.313 332.14 285.323 331.495 287.033 330.205V335.695ZM278.798 318.955C277.748 318.955 276.818 319.345 276.008 320.125C275.198 320.875 274.658 322 274.388 323.5H282.308V322.96C282.098 320.29 280.928 318.955 278.798 318.955Z" fill="url(#paint4_linear_9_25)"/>
</g>
<rect x="95" y="266" width="173" height="12" fill="white"/>
<defs>
<filter id="filter0_d_9_25" x="135.5" y="17.526" width="70" height="259.974" filterUnits="userSpaceOnUse" color-interpolation-filters="sRGB">
<feFlood flood-opacity="0" result="BackgroundImageFix"/>
<feColorMatrix in="SourceAlpha" type="matrix" values="0 0 0 0 0 0 0 0 0 0 0 0 0 0 0 0 0 0 127 0" result="hardAlpha"/>
<feOffset dx="-30" dy="5"/>
<feGaussianBlur stdDeviation="3.5"/>
<feComposite in2="hardAlpha" operator="out"/>
<feColorMatrix type="matrix" values="0 0 0 0 0 0 0 0 0 0 0 0 0 0 0 0 0 0 0.29 0"/>
<feBlend mode="normal" in2="BackgroundImageFix" result="effect1_dropShadow_9_25"/>
<feBlend mode="normal" in="SourceGraphic" in2="effect1_dropShadow_9_25" result="shape"/>
</filter>
<filter id="filter1_d_9_25" x="0" y="283" width="373" height="12" filterUnits="userSpaceOnUse" color-interpolation-filters="sRGB">
<feFlood flood-opacity="0" result="BackgroundImageFix"/>
<feColorMatrix in="SourceAlpha" type="matrix" values="0 0 0 0 0 0 0 0 0 0 0 0 0 0 0 0 0 0 127 0" result="hardAlpha"/>
<feOffset dy="3"/>
<feGaussianBlur stdDeviation="2"/>
<feComposite in2="hardAlpha" operator="out"/>
<feColorMatrix type="matrix" values="0 0 0 0 0 0 0 0 0 0 0 0 0 0 0 0 0 0 0.25 0"/>
<feBlend mode="normal" in2="BackgroundImageFix" result="effect1_dropShadow_9_25"/>
<feBlend mode="normal" in="SourceGraphic" in2="effect1_dropShadow_9_25" result="shape"/>
</filter>
<filter id="filter2_d_9_25" x="46.4374" y="303.745" width="241.991" height="41.615" filterUnits="userSpaceOnUse" color-interpolation-filters="sRGB">
<feFlood flood-opacity="0" result="BackgroundImageFix"/>
<feColorMatrix in="SourceAlpha" type="matrix" values="0 0 0 0 0 0 0 0 0 0 0 0 0 0 0 0 0 0 127 0" result="hardAlpha"/>
<feOffset dx="-5" dy="4"/>
<feGaussianBlur stdDeviation="2"/>
<feComposite in2="hardAlpha" operator="out"/>
<feColorMatrix type="matrix" values="0 0 0 0 0 0 0 0 0 0 0 0 0 0 0 0 0 0 0.25 0"/>
<feBlend mode="normal" in2="BackgroundImageFix" result="effect1_dropShadow_9_25"/>
<feBlend mode="normal" in="SourceGraphic" in2="effect1_dropShadow_9_25" result="shape"/>
</filter>
<radialGradient id="paint0_radial_9_25" cx="0" cy="0" r="1" gradientUnits="userSpaceOnUse" gradientTransform="translate(175 -9.5) rotate(162.655) scale(199.576 86.0855)">
<stop stop-color="white"/>
<stop offset="0.910684" stop-opacity="0.73"/>
</radialGradient>
<linearGradient id="paint1_linear_9_25" x1="293" y1="147" x2="200.5" y2="147" gradientUnits="userSpaceOnUse">
<stop offset="0.0001" stop-color="#CDCD5F"/>
<stop offset="0.263264" stop-color="#D3BA5E" stop-opacity="0.9"/>
<stop offset="0.411458" stop-color="#F0B16A" stop-opacity="0.66"/>
<stop offset="0.458333" stop-color="#E3944A"/>
<stop offset="0.796875" stop-color="#FFA34F" stop-opacity="0"/>
</linearGradient>
<linearGradient id="paint2_linear_9_25" x1="293" y1="221.5" x2="211" y2="0.999983" gradientUnits="userSpaceOnUse">
<stop stop-color="#FFFF31"/>
<stop offset="1" stop-color="#D4712D"/>
</linearGradient>
<linearGradient id="paint3_linear_9_25" x1="198" y1="36.7944" x2="182.871" y2="258.11" gradientUnits="userSpaceOnUse">
<stop stop-color="#8E5C2E"/>
<stop offset="1"/>
</linearGradient>
<linearGradient id="paint4_linear_9_25" x1="173" y1="323" x2="203" y2="323" gradientUnits="userSpaceOnUse">
<stop stop-color="#D4712D"/>
<stop offset="1" stop-opacity="0"/>
</linearGradient>
</defs>
</svg>
