<svg width="27" height="27" viewBox="0 0 27 27" fill="none" xmlns="http://www.w3.org/2000/svg">
<g clip-path="url(#clip0_21_17)">
<path fill-rule="evenodd" clip-rule="evenodd" d="M11.2662 3.17357C12.6184 2.41016 14.269 2.41016 15.6213 3.17357C15.6315 3.17929 15.6416 3.18517 15.6516 3.19123L22.6126 7.4126C23.9862 8.19579 24.75 9.61088 24.75 11.1463V18.92C24.75 20.4047 24.0246 21.8591 22.7065 22.5507L15.7641 26.7608C15.7541 26.7668 15.744 26.7727 15.7338 26.7785C14.3816 27.5419 12.731 27.5419 11.3787 26.7785C11.3685 26.7727 11.3584 26.7668 11.3484 26.7608L4.38732 22.5394C3.0137 21.7561 2.25 20.3411 2.25 18.8057V11.1463C2.25 9.61229 3.0123 8.1984 4.38356 7.41477L11.2291 3.19546C11.2413 3.18792 11.2536 3.18062 11.2662 3.17357ZM12.3757 5.16279L5.53344 9.38012C5.52122 9.38766 5.50884 9.39495 5.49635 9.40202C4.85525 9.76393 4.5 10.4015 4.5 11.1463V18.8057C4.5 19.5506 4.85525 20.1881 5.49635 20.55C5.50649 20.5558 5.51655 20.5616 5.52652 20.5677L12.485 24.7875C13.1507 25.157 13.9618 25.157 14.6275 24.7875L21.5859 20.5677C21.6099 20.5532 21.6344 20.5396 21.6594 20.5269C22.1155 20.2951 22.5 19.7064 22.5 18.92V11.1463C22.5 10.4015 22.1447 9.76393 21.5037 9.40202C21.4935 9.39628 21.4834 9.39039 21.4734 9.38435L14.515 5.16456C13.8504 4.79558 13.0408 4.79499 12.3757 5.16279ZM13.5 12.6325C12.1952 12.6325 11.1375 13.7073 11.1375 15.0331C11.1375 16.3591 12.1952 17.4339 13.5 17.4339C14.8048 17.4339 15.8625 16.3591 15.8625 15.0331C15.8625 13.7073 14.8048 12.6325 13.5 12.6325ZM8.88749 15.0331C8.88749 12.4445 10.9526 10.3461 13.5 10.3461C16.0475 10.3461 18.1125 12.4445 18.1125 15.0331C18.1125 17.6218 16.0475 19.7202 13.5 19.7202C10.9526 19.7202 8.88749 17.6218 8.88749 15.0331Z" fill="black"/>
</g>
<defs>
<clipPath id="clip0_21_17">
<rect width="27" height="27" fill="white"/>
</clipPath>
</defs>
</svg>
